<svg viewBox="0 0 200 200" xmlns="http://www.w3.org/2000/svg">
  <rect x="35" y="20" width="40" height="35" fill="#0014ff"/>
  <rect x="25" y="58" width="50" height="40" fill="#e30052"/>
  <rect x="25" y="101" width="50" height="40" fill="#0014ff"/>
  <path d="M 15 145 L 75 145" stroke="#0014ff" stroke-width="6" stroke-linecap="round"/>
  <path d="M 70 145 L 85 80" stroke="#0014ff" stroke-width="5" stroke-linecap="round"/>
  <path d="M 85 80 L 95 80" stroke="#0014ff" stroke-width="5" stroke-linecap="round"/>
  <circle cx="25" cy="155" r="7" fill="white" stroke="#0014ff" stroke-width="4"/>
  <circle cx="70" cy="155" r="7" fill="white" stroke="#0014ff" stroke-width="4"/>
  <circle cx="135" cy="30" r="12" fill="#0014ff"/>
  <path d="M 135 22 Q 155 22 165 26 L 165 30 L 135 30 Z" fill="#0014ff"/>
  <path d="M 125 48 Q 145 45 150 55 L 140 95 L 115 95 Z" fill="#0014ff"/>
  <path d="M 125 55 L 100 80 L 95 75" stroke="#0014ff" stroke-width="10" stroke-linecap="round" stroke-linejoin="round" fill="none"/>
  <path d="M 140 55 L 160 75 L 170 70" stroke="#0014ff" stroke-width="10" stroke-linecap="round" stroke-linejoin="round" fill="none"/>
  <path d="M 120 90 L 100 120 L 80 135" stroke="#0014ff" stroke-width="12" stroke-linecap="round" stroke-linejoin="round" fill="none"/>
  <path d="M 135 90 L 145 125 L 145 155" stroke="#0014ff" stroke-width="12" stroke-linecap="round" stroke-linejoin="round" fill="none"/>
</svg>
